<svg xmlns="http://www.w3.org/2000/svg" viewBox="0 0 480 640" role="img" aria-labelledby="title desc">
  <title id="title">Things Unsaid cover art placeholder</title>
  <desc id="desc">Editable illustrated placeholder cover for Things Unsaid by Seth Jenkins.</desc>
  <defs>
    <linearGradient id="paper" x1="0" y1="0" x2="1" y2="1"><stop offset="0" stop-color="#d7dac9"/><stop offset="1" stop-color="#9ba994"/></linearGradient>
    <linearGradient id="horizon" x1="0" y1="0" x2="0" y2="1"><stop offset="0" stop-color="#3f5951"/><stop offset="1" stop-color="#273d38"/></linearGradient>
    <pattern id="grain" width="9" height="9" patternUnits="userSpaceOnUse"><circle cx="1.4" cy="2" r=".5" fill="#253a33" opacity=".18"/></pattern>
  </defs>
  <rect width="480" height="640" fill="url(#paper)"/>
  <rect x="20" y="20" width="440" height="600" fill="none" stroke="#33493f" stroke-opacity=".52"/>
  <circle cx="360" cy="172" r="77" fill="#cb7955" opacity=".88"/>
  <path d="M20 377c59-33 110-30 161-9s86 35 142 5 88-39 137-17v264H20Z" fill="url(#horizon)"/>
  <path d="M20 418c58-27 109-25 162-5 49 19 93 23 144-4 44-23 88-30 134-12v223H20Z" fill="#203833" opacity=".76"/>
  <path d="M66 455c63 18 108 19 168-2s119-28 179-5" fill="none" stroke="#e5c4a2" stroke-width="2" opacity=".75"/>
  <path d="M92 486c37 9 59 9 96-3m117-10c35-11 59-12 94-6" fill="none" stroke="#e5c4a2" stroke-width="1.5" opacity=".54"/>
  <path d="M118 282c17-15 34-15 51 0 14 13 27 14 43 2" fill="none" stroke="#40564a" stroke-width="2" opacity=".75"/>
  <path d="M100 302c25 4 38-6 54-17 17-11 32-3 44 7 15 14 30 14 45 0" fill="none" stroke="#40564a" stroke-width="1.5" opacity=".48"/>
  <rect width="480" height="640" fill="url(#grain)"/>
  <g fill="#253b35" text-anchor="middle" font-family="Georgia, 'Times New Roman', serif">
    <text x="240" y="92" font-size="15" letter-spacing="5">SETH JENKINS</text>
    <text x="240" y="183" font-size="51" letter-spacing="-2">Things</text>
    <text x="240" y="236" font-size="51" font-style="italic" letter-spacing="-2">Unsaid</text>
  </g>
  <path d="M180 258h120" stroke="#c5714e" stroke-width="2"/>
  <g fill="#f3f0e9" text-anchor="middle" font-family="Arial, sans-serif">
    <text x="240" y="570" font-size="11" letter-spacing="3">COVER ART</text>
    <text x="240" y="590" font-size="9" letter-spacing="2">PLACEHOLDER — REPLACE BEFORE LAUNCH</text>
  </g>
</svg>
